<svg xmlns="http://www.w3.org/2000/svg" viewBox="0 0 416.55 416.55"><defs><style>.cls-1{fill:#fff;}.cls-2{fill:#a6a7a7;}.cls-3{fill:#444;}.cls-4{fill:#773715;}.cls-5{fill:#c11f1c;}.cls-6{fill:#f6f1eb;}</style></defs><g id="Capa_2" data-name="Capa 2"><g id="Capa_1-2" data-name="Capa 1"><circle class="cls-1" cx="208.27" cy="208.27" r="208.27"/><path class="cls-2" d="M63.31,203.13c.07-1,.15-1.93.22-2.9a6,6,0,0,0,.84-4.84c1.91-17.33,4.61-34.6,4-52.12-.15-4,1.21-4.8,5.12-4a129.2,129.2,0,0,1,16.12,4.27c2.46.85,3.66,2.29,3.55,4.93-.35,9.23-.32,18.49-1,27.69Q90.76,194,88.43,211.69c-1.22,9.28-3.16,18.45-4.78,27.68l-5,16.66C76,262,73.48,268,69.7,273.32c-3.6,5.09-7.5,8.5-14.56,6.61s-14.55-2.81-22.54-4.28c3.62-4.63,7.48-8.37,10-13.1,10.38-15.44,15.62-32.79,19-50.85.11-1.16.21-2.33.32-3.49.6-.53.81-1.08.15-1.71.21-.79.43-1.58.65-2.38Z"/><path class="cls-3" d="M227.27,188.45c9.92-10.07,20.66-9.54,28.42.94,4.6-6.23,10.26-9.59,18.36-7.47,6.73,1.77,11,5.93,11.21,12.94.35,11.33.11,22.68.23,34,0,2-.65,2.94-2.66,3-1.27,0-2.54.31-3.81.32-7,0-6.95,0-7-6.7q-.06-12.45-.17-24.91c0-3.44-.85-6.55-4.89-7.07s-7.19.76-8.87,4.82a19.1,19.1,0,0,0-1.07,7.52c0,7.34-.13,14.7.11,22,.09,2.92-1,4.07-3.69,4.12-.63,0-1.27.14-1.9.18-7.69.41-8,.08-8-7.44,0-7.19.05-14.37,0-21.56s-1.77-9.63-6.34-9.74c-5.54-.14-8.56,3.31-8.66,10.16-.12,8-.34,16,0,24,.15,3.56-1.38,4.42-4.27,4.54-.8,0-1.6.08-2.39.09-6.76.07-6.87,0-6.88-6.68,0-12.78-.06-25.56.08-38.33,0-1.83-1.56-5.28,2.27-5,3.4.24,8.5-2.67,9.49,3.83C226.91,186.6,227,187.19,227.27,188.45Z"/><path class="cls-2" d="M126.7,222.52c3.61,17.18,10.33,33,21,47,1.44,1.88,3,3.67,4.76,5.81-5,1.93-10.06,1.71-14.92,2.56-2.21.39-3.81-1.33-5.3-2.78-6.2-6-9.75-13.64-12.65-21.62-.76-2.09-1.57-4.16-2.35-6.24-.53-2.14-1.09-4.27-1.59-6.41a379.18,379.18,0,0,1-8.3-51c-.61-6.44.22-13.07-2-19.34l-.27-1.16.27-1.35a41.25,41.25,0,0,0,.15-9.93c-.15-.44-.31-.87-.47-1.31,0-4-.17-7.92.05-11.87.19-3.61,7.53-7.48,10.65-5.77,1.53.84,1.26,2.4,1.32,3.8q.27,6.65.55,13.29a1,1,0,0,0,0,.92v4.76c.66,8.18,1.06,16.39,2.07,24.52C121.22,198.54,122.5,210.82,126.7,222.52Z"/><path class="cls-3" d="M314.35,217.4c3-10.42,6.24-20.8,9.06-31.27.83-3.06,2.12-4.42,5.24-4.07,9.53,1,19.1.87,28.66.75,2.35,0,2.46,1.13,2.45,3-.06,14.21-.11,28.43,0,42.64,0,2.53-.87,3.47-3.23,3.48-1,0-1.89.25-2.85.28-7.24.25-7.47,0-7.47-7.06,0-9.42-.07-18.85,0-28.27,0-2.74-.16-4.81-3.76-4.18-2.35.41-3.12-1-3.05-3.09a8.09,8.09,0,0,0-1.09-4.91c-2.83,7.27-5.7,14.53-8.48,21.83-2.55,6.68-5.25,13.33-7.39,20.15-1.25,4-3.45,5.33-7.44,5.49-7.65.32-8,.25-10.64-6.83-4.88-13.11-9.69-26.24-14.77-39.27-1.23-3.14-.55-3.87,2.55-4,10.76-.54,10.77-.6,13.85,9.8,2.51,8.5,5,17,7.47,25.51Z"/><path class="cls-4" d="M36.89,255.56c-10.14-10.78-12.67-23.88-11.63-38.07a81.4,81.4,0,0,1,18.35-36.34l0,0,1-1,0,.05c4.59-3.63,8.1-8.69,14.11-10.39a.49.49,0,0,0,.09.67C57.31,183.2,57.08,196,55.5,208.68a196.52,196.52,0,0,1-10.32,44C42.71,259.42,42.53,259.36,36.89,255.56Z"/><path class="cls-5" d="M113.39,250l-19.1,11.57c-1.58-.25-2.79,1.49-4.75.75,1.65-7.18,4.15-14.25,3.82-21.78l0,0c1-.33.93-1.11.76-1.91a274.17,274.17,0,0,0,2.13-46.09,173,173,0,0,0-1-27.59c-.19-1.75-.41-3.8,2.12-4,2.69-.2,2.28,1.91,2.4,3.66a327.58,327.58,0,0,0,3.74,34.21c2.54,14.65,4.71,29.38,9.55,43.53A12.2,12.2,0,0,1,113.39,250Z"/><path class="cls-4" d="M130.79,167.44c11.66,7.45,16.79,18.05,15.3,31.82C143.4,208.71,140,217.8,133.86,226l-3-6.73h0c-2.1-9.09-4.46-18.14-6.22-27.3-1.82-9.5-3.84-19-4.42-28.94a26.21,26.21,0,0,1,3.21.95C126,165.08,128.36,166.28,130.79,167.44Z"/><path class="cls-3" d="M203.73,207.37c0,6.86-.15,13.72.09,20.57.1,2.93-.92,4.09-3.68,4.1-1.12,0-2.23.09-3.34.14-4.11.19-6.17-1-5.93-5.88.46-9.7,0-19.45.18-29.18,0-3-.26-5-4-4.47-4.11.57-3.12-3.1-3.2-4.85s-.87-5.11,3.15-5q6.93.24,13.87,0c2.39-.09,2.93.82,2.89,3C203.65,193,203.73,200.19,203.73,207.37Z"/><path class="cls-3" d="M351.34,174.54c-8.06-.19-7.51,1.52-7.56-6.69,0-6.83,0-6.83,7.94-6.82,6.53,0,7.16.62,7.19,7S358.85,174.54,351.34,174.54Z"/><path class="cls-3" d="M203,168.18c0,6.36,0,6-9.12,6.5-5.61.32-5.78-2.64-5.75-6.59.05-6.74.41-7.07,8.45-7.07C203,161,203,161,203,168.18Z"/><path class="cls-5" d="M94.72,182.6v0Z"/><path class="cls-6" d="M63.31,203.13l-.63,1Z"/><path class="cls-3" d="M189.86,248.24v-8.52h.84v8.52Z"/><path class="cls-3" d="M197.92,248.24h-.81v-3.47a3,3,0,0,0-.33-1.61,1.1,1.1,0,0,0-1-.5,2.08,2.08,0,0,0-.95.23,2.61,2.61,0,0,0-.82.63,2.55,2.55,0,0,0-.51.91v3.81h-.81V242h.74v1.42a3,3,0,0,1,.66-.8,3.35,3.35,0,0,1,.92-.53,3.26,3.26,0,0,1,1.07-.19,1.94,1.94,0,0,1,.88.19,1.44,1.44,0,0,1,.57.55,2.45,2.45,0,0,1,.32.84,6.23,6.23,0,0,1,.09,1.11Z"/><path class="cls-3" d="M201.71,248.36a3.9,3.9,0,0,1-1.42-.26,2.93,2.93,0,0,1-1.14-.76l.33-.58a3.45,3.45,0,0,0,1.06.71,2.94,2.94,0,0,0,1.14.23,2.14,2.14,0,0,0,1.19-.3.93.93,0,0,0,.45-.83.71.71,0,0,0-.22-.57,1.66,1.66,0,0,0-.64-.32q-.41-.13-1-.27a7.77,7.77,0,0,1-1.08-.38,1.65,1.65,0,0,1-.66-.5,1.3,1.3,0,0,1-.22-.79,1.64,1.64,0,0,1,.3-1,2,2,0,0,1,.84-.61,3.29,3.29,0,0,1,1.2-.21,3.34,3.34,0,0,1,1.27.23,2.21,2.21,0,0,1,.9.64l-.4.55a2,2,0,0,0-.8-.57,2.58,2.58,0,0,0-1-.19,2.86,2.86,0,0,0-.73.1,1.16,1.16,0,0,0-.57.34.88.88,0,0,0-.23.64.73.73,0,0,0,.17.51,1.14,1.14,0,0,0,.51.31,7.9,7.9,0,0,0,.82.27c.48.13.89.26,1.24.39a2.13,2.13,0,0,1,.82.51,1.21,1.21,0,0,1,.28.87,1.6,1.6,0,0,1-.66,1.36A2.89,2.89,0,0,1,201.71,248.36Z"/><path class="cls-3" d="M208.46,248l-.3.14a2.56,2.56,0,0,1-.49.16,2.53,2.53,0,0,1-.63.08,1.58,1.58,0,0,1-.65-.14,1.08,1.08,0,0,1-.49-.4,1.17,1.17,0,0,1-.18-.67v-4.49h-.86V242h.86V239.9h.82V242H208v.65h-1.44v4.26a.66.66,0,0,0,.24.51.85.85,0,0,0,.51.17,1.75,1.75,0,0,0,.62-.11,1.48,1.48,0,0,0,.33-.17Z"/><path class="cls-3" d="M209.48,240.68v-1.2h.81v1.2Zm0,7.56V242h.81v6.26Z"/><path class="cls-3" d="M215.09,248l-.3.14a2.35,2.35,0,0,1-.49.16,2.45,2.45,0,0,1-.62.08,1.66,1.66,0,0,1-.66-.14,1.1,1.1,0,0,1-.48-.4,1.17,1.17,0,0,1-.18-.67v-4.49h-.87V242h.87V239.9h.81V242h1.44v.65h-1.44v4.26a.66.66,0,0,0,.25.51.85.85,0,0,0,.51.17,1.7,1.7,0,0,0,.61-.11,1.41,1.41,0,0,0,.34-.17Z"/><path class="cls-3" d="M216.05,245.67V242h.82v3.51a2.75,2.75,0,0,0,.37,1.59,1.23,1.23,0,0,0,1.08.53,2.18,2.18,0,0,0,.93-.21,2.44,2.44,0,0,0,.8-.6,2.71,2.71,0,0,0,.53-.9V242h.81v5.24a.36.36,0,0,0,.08.25.32.32,0,0,0,.21.09v.65h-.38a.74.74,0,0,1-.42-.19.62.62,0,0,1-.18-.41l0-.83a3,3,0,0,1-1.11,1.12,3,3,0,0,1-1.51.41,1.72,1.72,0,0,1-1.49-.69A3.3,3.3,0,0,1,216.05,245.67Z"/><path class="cls-3" d="M226.24,248l-.3.14a2.35,2.35,0,0,1-.49.16,2.45,2.45,0,0,1-.62.08,1.63,1.63,0,0,1-.66-.14,1.1,1.1,0,0,1-.48-.4,1.17,1.17,0,0,1-.18-.67v-4.49h-.87V242h.87V239.9h.81V242h1.44v.65h-1.44v4.26a.66.66,0,0,0,.25.51.85.85,0,0,0,.51.17,1.7,1.7,0,0,0,.61-.11,1.66,1.66,0,0,0,.34-.17Z"/><path class="cls-3" d="M229.83,248.36a3,3,0,0,1-1.25-.26,3.18,3.18,0,0,1-1-.7,3.31,3.31,0,0,1-.64-1,3.35,3.35,0,0,1-.23-1.22,3.39,3.39,0,0,1,.23-1.25,3.16,3.16,0,0,1,.65-1,3.08,3.08,0,0,1,3.47-.7,3.09,3.09,0,0,1,1,.7,3.16,3.16,0,0,1,.65,1,3.39,3.39,0,0,1,.23,1.25,3.35,3.35,0,0,1-.23,1.22,3.31,3.31,0,0,1-.64,1,3.18,3.18,0,0,1-1,.7A3,3,0,0,1,229.83,248.36Zm-2.28-3.2a2.49,2.49,0,0,0,.31,1.25,2.3,2.3,0,0,0,.82.9,2.05,2.05,0,0,0,1.14.33,2.11,2.11,0,0,0,1.14-.34,2.44,2.44,0,0,0,.83-.91,2.71,2.71,0,0,0,.31-1.27,2.66,2.66,0,0,0-.31-1.25,2.49,2.49,0,0,0-.83-.9,2,2,0,0,0-1.14-.34,2,2,0,0,0-1.14.35,2.4,2.4,0,0,0-.82.91A2.57,2.57,0,0,0,227.55,245.16Z"/><path class="cls-3" d="M245.07,248.24V241.3L242,246.69h-.53l-3.1-5.39v6.94h-.84v-8.52h.87l3.32,5.83,3.35-5.83h.85v8.52Z"/><path class="cls-3" d="M247.82,245.67V242h.81v3.51a2.83,2.83,0,0,0,.37,1.59,1.24,1.24,0,0,0,1.09.53,2.21,2.21,0,0,0,.93-.21,2.4,2.4,0,0,0,.79-.6,2.55,2.55,0,0,0,.53-.9V242h.82v5.24a.36.36,0,0,0,.07.25.34.34,0,0,0,.22.09v.65h-.39a.68.68,0,0,1-.41-.19.59.59,0,0,1-.19-.41l0-.83a3,3,0,0,1-1.11,1.12,3,3,0,0,1-1.52.41,1.73,1.73,0,0,1-1.49-.69A3.37,3.37,0,0,1,247.82,245.67Z"/><path class="cls-3" d="M260.26,248.24h-.81v-3.47a3,3,0,0,0-.33-1.61,1.11,1.11,0,0,0-1-.5,2.08,2.08,0,0,0-1,.23,2.61,2.61,0,0,0-.82.63,2.28,2.28,0,0,0-.51.91v3.81H255V242h.74v1.42a3,3,0,0,1,.66-.8,3.35,3.35,0,0,1,.92-.53,3.26,3.26,0,0,1,1.07-.19,2,2,0,0,1,.88.19,1.44,1.44,0,0,1,.57.55,2.45,2.45,0,0,1,.32.84,6.23,6.23,0,0,1,.09,1.11Z"/><path class="cls-3" d="M262,240.68v-1.2h.82v1.2Zm0,7.56V242h.82v6.26Z"/><path class="cls-3" d="M267.33,248.36a3.05,3.05,0,0,1-1.26-.26,3.16,3.16,0,0,1-1-.71,3.35,3.35,0,0,1-.9-2.28,3.34,3.34,0,0,1,.4-1.61,3,3,0,0,1,1.1-1.16,3.18,3.18,0,0,1,1.64-.43,3,3,0,0,1,1.54.4,2.45,2.45,0,0,1,1,1.09l-.79.25a1.91,1.91,0,0,0-.74-.75,2.08,2.08,0,0,0-1.05-.27,2.16,2.16,0,0,0-1.14.32,2.35,2.35,0,0,0-.82.89,2.52,2.52,0,0,0-.31,1.27,2.68,2.68,0,0,0,.31,1.27,2.55,2.55,0,0,0,.83.92,2.11,2.11,0,0,0,1.93.19,2,2,0,0,0,.66-.39,1.25,1.25,0,0,0,.38-.53l.8.24a2.12,2.12,0,0,1-.56.8,2.88,2.88,0,0,1-.91.55A3.18,3.18,0,0,1,267.33,248.36Z"/><path class="cls-3" d="M271.2,240.68v-1.2H272v1.2Zm0,7.56V242H272v6.26Z"/><path class="cls-3" d="M277,248.36a2.52,2.52,0,0,1-1.4-.41,3.08,3.08,0,0,1-1-1v3.84h-.82V242h.73v1.21a2.82,2.82,0,0,1,1-.94,2.52,2.52,0,0,1,1.33-.37,2.63,2.63,0,0,1,1.19.27,3,3,0,0,1,.93.72,3.37,3.37,0,0,1,.62,1,3.31,3.31,0,0,1,.22,1.2,3.61,3.61,0,0,1-.35,1.61,3,3,0,0,1-1,1.17A2.5,2.5,0,0,1,277,248.36Zm-.23-.72a2,2,0,0,0,.93-.21,2.25,2.25,0,0,0,.7-.57,2.43,2.43,0,0,0,.45-.8,2.93,2.93,0,0,0,.16-.93,2.55,2.55,0,0,0-.18-.95,2.3,2.3,0,0,0-.5-.8,2.51,2.51,0,0,0-.74-.55,2.13,2.13,0,0,0-.91-.2,1.91,1.91,0,0,0-.65.12,2.47,2.47,0,0,0-.64.34,2.17,2.17,0,0,0-.51.49,1.27,1.27,0,0,0-.25.59v1.91a2.89,2.89,0,0,0,.51.79,2.72,2.72,0,0,0,.75.56A2,2,0,0,0,276.78,247.64Z"/><path class="cls-3" d="M280.72,246.45a1.54,1.54,0,0,1,.34-1,2.18,2.18,0,0,1,.93-.66,3.82,3.82,0,0,1,1.37-.23,8,8,0,0,1,.95.07,3.94,3.94,0,0,1,.87.22v-.53a1.69,1.69,0,0,0-.46-1.25,1.78,1.78,0,0,0-1.3-.46,2.8,2.8,0,0,0-1,.18,5.36,5.36,0,0,0-1,.55l-.32-.58a5.35,5.35,0,0,1,1.2-.63,3.61,3.61,0,0,1,1.2-.21,2.5,2.5,0,0,1,1.83.66,2.41,2.41,0,0,1,.67,1.81v2.87a.34.34,0,0,0,.07.25.37.37,0,0,0,.23.09v.65l-.23,0a.32.32,0,0,1-.14,0,.63.63,0,0,1-.46-.19.68.68,0,0,1-.17-.39v-.45a2.67,2.67,0,0,1-1.09.83,3.32,3.32,0,0,1-1.37.3,2.27,2.27,0,0,1-1.08-.26,1.89,1.89,0,0,1-.76-.69A1.78,1.78,0,0,1,280.72,246.45Zm4.19.47a1.4,1.4,0,0,0,.2-.32.6.6,0,0,0,.07-.27v-.91a4.74,4.74,0,0,0-.84-.23,4.38,4.38,0,0,0-.88-.09,2.6,2.6,0,0,0-1.42.35,1.06,1.06,0,0,0-.54.94,1.28,1.28,0,0,0,.18.65,1.51,1.51,0,0,0,.53.5,1.62,1.62,0,0,0,.81.19,2.67,2.67,0,0,0,1.1-.22A2,2,0,0,0,284.91,246.92Z"/><path class="cls-3" d="M287.8,239.48h.82v7.38a.84.84,0,0,0,.16.62.6.6,0,0,0,.41.14,2,2,0,0,0,.43,0l.38-.1.14.66a2.93,2.93,0,0,1-.56.16,3.25,3.25,0,0,1-.57.06,1.14,1.14,0,0,1-1.21-1.22Z"/><path class="cls-3" d="M293.31,245.15a3.63,3.63,0,0,1,.36-1.62,3.16,3.16,0,0,1,1-1.18,2.57,2.57,0,0,1,1.47-.44,2.43,2.43,0,0,1,1.4.42,3.08,3.08,0,0,1,1,1v-3.85h.81v7.77a.36.36,0,0,0,.08.25.32.32,0,0,0,.21.09v.65a1.72,1.72,0,0,1-.37,0,.67.67,0,0,1-.44-.2.59.59,0,0,1-.2-.42V247a2.71,2.71,0,0,1-3.52,1.07,3,3,0,0,1-1-.71,3.58,3.58,0,0,1-.62-1A3.31,3.31,0,0,1,293.31,245.15Zm5.22.95v-1.92a2.15,2.15,0,0,0-.51-.78,2.86,2.86,0,0,0-.78-.56,2,2,0,0,0-.87-.21,1.94,1.94,0,0,0-.91.21,2.18,2.18,0,0,0-.71.57,2.65,2.65,0,0,0-.45.81,2.92,2.92,0,0,0-.15.93,2.75,2.75,0,0,0,.17.95,2.46,2.46,0,0,0,.5.8,2.15,2.15,0,0,0,1.66.74,1.9,1.9,0,0,0,.64-.12,2.84,2.84,0,0,0,.65-.33,2,2,0,0,0,.51-.5A1.39,1.39,0,0,0,298.53,246.1Z"/><path class="cls-3" d="M303.89,248.36a3,3,0,0,1-2.24-1,3.36,3.36,0,0,1-.66-1,3.48,3.48,0,0,1-.23-1.26,3.18,3.18,0,0,1,.4-1.59,3.09,3.09,0,0,1,1.11-1.16,3,3,0,0,1,1.61-.44,2.94,2.94,0,0,1,1.61.44,3.14,3.14,0,0,1,1.09,1.17,3.24,3.24,0,0,1,.4,1.57v.19a.52.52,0,0,1,0,.14h-5.35a2.7,2.7,0,0,0,.38,1.18,2.44,2.44,0,0,0,.83.83,2.15,2.15,0,0,0,1.11.3,2.29,2.29,0,0,0,1.16-.31,1.76,1.76,0,0,0,.76-.82l.71.2a2.48,2.48,0,0,1-.59.8,2.92,2.92,0,0,1-.93.56A3.35,3.35,0,0,1,303.89,248.36Zm-2.3-3.53h4.62a2.57,2.57,0,0,0-.37-1.19,2.27,2.27,0,0,0-1.95-1.09,2.19,2.19,0,0,0-1.11.29,2.3,2.3,0,0,0-.83.81A2.52,2.52,0,0,0,301.59,244.83Z"/><path class="cls-3" d="M311.33,239.48h.82v7.38c0,.32.05.52.17.62a.56.56,0,0,0,.4.14,2.18,2.18,0,0,0,.44,0l.37-.1.14.66a2.93,2.93,0,0,1-.56.16,3.25,3.25,0,0,1-.57.06,1.14,1.14,0,0,1-1.21-1.22Z"/><path class="cls-3" d="M314.06,246.45a1.59,1.59,0,0,1,.33-1,2.31,2.31,0,0,1,.93-.66,3.91,3.91,0,0,1,1.38-.23,7.72,7.72,0,0,1,.94.07,4.19,4.19,0,0,1,.88.22v-.53a1.7,1.7,0,0,0-.47-1.25,1.74,1.74,0,0,0-1.29-.46,2.8,2.8,0,0,0-1,.18,5.13,5.13,0,0,0-1,.55l-.31-.58a5.35,5.35,0,0,1,1.2-.63,3.53,3.53,0,0,1,1.2-.21,2.46,2.46,0,0,1,1.82.66,2.41,2.41,0,0,1,.68,1.81v2.87a.34.34,0,0,0,.07.25.35.35,0,0,0,.23.09v.65l-.23,0a.37.37,0,0,1-.15,0,.59.59,0,0,1-.45-.19.62.62,0,0,1-.17-.39v-.45a2.74,2.74,0,0,1-1.09.83,3.36,3.36,0,0,1-1.37.3,2.34,2.34,0,0,1-1.09-.26,1.92,1.92,0,0,1-.75-.69A1.78,1.78,0,0,1,314.06,246.45Zm4.18.47a1.46,1.46,0,0,0,.21-.32.6.6,0,0,0,.07-.27v-.91a4.62,4.62,0,0,0-.85-.23,4.31,4.31,0,0,0-.88-.09,2.58,2.58,0,0,0-1.41.35,1.06,1.06,0,0,0-.54.94,1.28,1.28,0,0,0,.18.65,1.47,1.47,0,0,0,.52.5,1.68,1.68,0,0,0,.82.19,2.7,2.7,0,0,0,1.1-.22A1.92,1.92,0,0,0,318.24,246.92Z"/><path class="cls-3" d="M323.88,239.72l3.05,7.47,3-7.47h.87l-3.52,8.52h-.77L323,239.72Z"/><path class="cls-3" d="M331.9,240.68v-1.2h.82v1.2Zm0,7.56V242h.82v6.26Z"/><path class="cls-3" d="M336.38,248.24,333.84,242h.86l2.13,5.41L339,242h.8l-2.53,6.23Z"/><path class="cls-3" d="M340.91,240.68v-1.2h.82v1.2Zm0,7.56V242h.82v6.26Z"/><path class="cls-3" d="M346.23,248.36a3,3,0,0,1-1.25-.26,3,3,0,0,1-1-.71,3.34,3.34,0,0,1-.65-1,3.29,3.29,0,0,1-.24-1.26,3.19,3.19,0,0,1,.41-1.59,3,3,0,0,1,1.11-1.16,3.17,3.17,0,0,1,3.22,0,3.21,3.21,0,0,1,1.48,2.74v.19a.57.57,0,0,1,0,.14H344a2.57,2.57,0,0,0,.38,1.18,2.41,2.41,0,0,0,.82.83,2.15,2.15,0,0,0,1.11.3,2.27,2.27,0,0,0,1.16-.31,1.71,1.71,0,0,0,.76-.82l.71.2a2.34,2.34,0,0,1-.59.8,2.72,2.72,0,0,1-.93.56A3.29,3.29,0,0,1,346.23,248.36Zm-2.31-3.53h4.62a2.56,2.56,0,0,0-.36-1.19,2.26,2.26,0,0,0-3.89,0A2.53,2.53,0,0,0,343.92,244.83Z"/><path class="cls-3" d="M355.83,248.24H355v-3.47a3.14,3.14,0,0,0-.32-1.61,1.12,1.12,0,0,0-1-.5,2,2,0,0,0-.95.23,2.5,2.5,0,0,0-.82.63,2.28,2.28,0,0,0-.51.91v3.81h-.82V242h.75v1.42a2.64,2.64,0,0,1,.66-.8,3.11,3.11,0,0,1,2-.72,1.93,1.93,0,0,1,.87.19,1.46,1.46,0,0,1,.58.55,2.45,2.45,0,0,1,.31.84,5.39,5.39,0,0,1,.1,1.11Z"/><path class="cls-3" d="M357.15,245.15a3.63,3.63,0,0,1,.36-1.62,3.16,3.16,0,0,1,1-1.18,2.57,2.57,0,0,1,1.47-.44,2.43,2.43,0,0,1,1.4.42,3.18,3.18,0,0,1,1,1v-3.85h.81v7.77a.36.36,0,0,0,.08.25.32.32,0,0,0,.21.09v.65a1.72,1.72,0,0,1-.37,0,.71.71,0,0,1-.45-.2.62.62,0,0,1-.19-.42V247a2.75,2.75,0,0,1-2.33,1.34,2.63,2.63,0,0,1-1.19-.27,3,3,0,0,1-.95-.71,3.58,3.58,0,0,1-.62-1A3.31,3.31,0,0,1,357.15,245.15Zm5.22.95v-1.92a2.29,2.29,0,0,0-.51-.78,2.86,2.86,0,0,0-.78-.56,2,2,0,0,0-.87-.21,1.94,1.94,0,0,0-.91.21,2.18,2.18,0,0,0-.71.57,2.65,2.65,0,0,0-.45.81,2.92,2.92,0,0,0-.15.93,2.75,2.75,0,0,0,.17.95,2.46,2.46,0,0,0,.5.8,2.15,2.15,0,0,0,1.66.74,1.9,1.9,0,0,0,.64-.12,2.84,2.84,0,0,0,.65-.33,2,2,0,0,0,.51-.5A1.39,1.39,0,0,0,362.37,246.1Z"/><path class="cls-3" d="M364.53,246.45a1.59,1.59,0,0,1,.33-1,2.31,2.31,0,0,1,.93-.66,3.91,3.91,0,0,1,1.38-.23,7.72,7.72,0,0,1,.94.07,4,4,0,0,1,.88.22v-.53a1.66,1.66,0,0,0-.47-1.25,1.74,1.74,0,0,0-1.29-.46,2.8,2.8,0,0,0-1,.18,5.13,5.13,0,0,0-1,.55l-.31-.58a5.35,5.35,0,0,1,1.2-.63,3.53,3.53,0,0,1,1.2-.21,2.46,2.46,0,0,1,1.82.66,2.41,2.41,0,0,1,.68,1.81v2.87a.34.34,0,0,0,.07.25.35.35,0,0,0,.23.09v.65l-.23,0a.32.32,0,0,1-.14,0,.6.6,0,0,1-.46-.19.62.62,0,0,1-.17-.39v-.45a2.74,2.74,0,0,1-1.09.83,3.36,3.36,0,0,1-1.37.3,2.34,2.34,0,0,1-1.09-.26,1.92,1.92,0,0,1-.75-.69A1.78,1.78,0,0,1,364.53,246.45Zm4.19.47a1.87,1.87,0,0,0,.2-.32.6.6,0,0,0,.07-.27v-.91a4.74,4.74,0,0,0-.84-.23,4.48,4.48,0,0,0-.89-.09,2.58,2.58,0,0,0-1.41.35,1.06,1.06,0,0,0-.54.94,1.28,1.28,0,0,0,.18.65,1.47,1.47,0,0,0,.52.5,1.68,1.68,0,0,0,.82.19,2.7,2.7,0,0,0,1.1-.22A2,2,0,0,0,368.72,246.92Z"/></g></g></svg>